<svg width="354" height="375" viewBox="0 0 354 375" fill="none" xmlns="http://www.w3.org/2000/svg">
<path d="M68.2139 66.5322V101.47H100.464V268.766H68.2139V308.409H134.058V194.86L244.918 308.409H285.902V278.169L196.201 186.442L285.902 96.7659V66.5322H243.574L134.058 175.376V66.5322H68.2139Z" fill="white"/>
<path d="M83.6684 119.61H68.2139V248.61H83.6684V119.61Z" fill="white"/>
<path d="M164.292 66.5322V96.7659L194.526 66.5322H164.292Z" fill="white"/>
<path d="M164.292 308.409H197.886L164.298 274.821L164.292 308.409Z" fill="white"/>
<path d="M285.902 232.487V141.782L241.558 186.798L285.902 232.487Z" fill="white"/>
<path d="M34.9383 0.0160217H0V374.922H34.9383" fill="#FFFFFD"/>
<path d="M353.794 0H318.859V374.906H353.794" fill="#FFFFFD"/>
<path d="M0 0.015922L34.6198 34.2821H319.496L353.794 0" fill="#FFFFFD"/>
<path d="M34.6198 340.656L0 374.922L353.794 374.906L319.496 340.656" fill="#FFFFFD"/>
</svg>
